<svg width="16" height="16" viewBox="0 0 16 16" fill="none" xmlns="http://www.w3.org/2000/svg">
<path d="M5.19967 1.33984H10.7997C12.933 1.33984 14.6663 3.07318 14.6663 5.20651V10.8065C14.6663 11.832 14.259 12.8155 13.5338 13.5407C12.8087 14.2658 11.8252 14.6732 10.7997 14.6732H5.19967C3.06634 14.6732 1.33301 12.9398 1.33301 10.8065V5.20651C1.33301 4.18101 1.74039 3.1975 2.46553 2.47236C3.19067 1.74722 4.17417 1.33984 5.19967 1.33984ZM5.06634 2.67318C4.42982 2.67318 3.81937 2.92603 3.36929 3.37612C2.9192 3.82621 2.66634 4.43666 2.66634 5.07318V10.9398C2.66634 12.2665 3.73967 13.3398 5.06634 13.3398H10.933C11.5695 13.3398 12.18 13.087 12.6301 12.6369C13.0802 12.1868 13.333 11.5764 13.333 10.9398V5.07318C13.333 3.74651 12.2597 2.67318 10.933 2.67318H5.06634ZM11.4997 3.67318C11.7207 3.67318 11.9327 3.76097 12.0889 3.91725C12.2452 4.07354 12.333 4.2855 12.333 4.50651C12.333 4.72752 12.2452 4.93949 12.0889 5.09577C11.9327 5.25205 11.7207 5.33984 11.4997 5.33984C11.2787 5.33984 11.0667 5.25205 10.9104 5.09577C10.7541 4.93949 10.6663 4.72752 10.6663 4.50651C10.6663 4.2855 10.7541 4.07354 10.9104 3.91725C11.0667 3.76097 11.2787 3.67318 11.4997 3.67318ZM7.99967 4.67318C8.88373 4.67318 9.73158 5.02437 10.3567 5.64949C10.9818 6.27461 11.333 7.12246 11.333 8.00651C11.333 8.89057 10.9818 9.73841 10.3567 10.3635C9.73158 10.9887 8.88373 11.3398 7.99967 11.3398C7.11562 11.3398 6.26777 10.9887 5.64265 10.3635C5.01753 9.73841 4.66634 8.89057 4.66634 8.00651C4.66634 7.12246 5.01753 6.27461 5.64265 5.64949C6.26777 5.02437 7.11562 4.67318 7.99967 4.67318ZM7.99967 6.00651C7.46924 6.00651 6.96053 6.21722 6.58546 6.5923C6.21039 6.96737 5.99967 7.47608 5.99967 8.00651C5.99967 8.53694 6.21039 9.04565 6.58546 9.42072C6.96053 9.7958 7.46924 10.0065 7.99967 10.0065C8.53011 10.0065 9.03882 9.7958 9.41389 9.42072C9.78896 9.04565 9.99967 8.53694 9.99967 8.00651C9.99967 7.47608 9.78896 6.96737 9.41389 6.5923C9.03882 6.21722 8.53011 6.00651 7.99967 6.00651Z" fill="white" fill-opacity="0.8"/>
</svg>
