<svg width="317" height="439" viewBox="0 0 317 439" fill="none" xmlns="http://www.w3.org/2000/svg">
<g clip-path="url(#clip0_1_611)">
<path d="M226.792 268.288C219.175 281.198 213.495 298.54 213.495 325.01V330.159C213.495 335.434 211.403 340.494 207.678 344.224C203.954 347.954 198.902 350.05 193.635 350.05C188.369 350.05 183.317 347.954 179.593 344.224C175.868 340.494 173.776 335.434 173.776 330.159V325.01C173.776 292.273 180.946 267.79 192.594 248.038C204.005 228.704 219.08 215.155 231.97 203.85L234.108 201.977C246.573 191.075 256.415 182.449 263.878 171.299C271.197 160.366 276.58 146.246 276.58 124.223C276.58 78.365 239.421 41.147 193.635 41.147C147.85 41.147 110.691 78.365 110.691 124.223C110.691 129.498 108.598 134.558 104.874 138.289C101.15 142.019 96.099 144.115 90.832 144.115C85.565 144.115 80.514 142.019 76.789 138.289C73.064 134.558 70.972 129.498 70.972 124.223C70.972 56.404 125.926 1.36401 193.635 1.36401C261.345 1.36401 316.299 56.404 316.299 124.223C316.299 153.685 308.811 175.603 296.864 193.459H296.863C286.375 209.145 272.711 221.074 261.066 231.212L261.065 231.213L258.125 233.787V233.788C245.294 245.033 234.668 254.961 226.792 268.288ZM211.313 430.239C206.624 434.935 200.265 437.572 193.635 437.572C187.005 437.572 180.647 434.935 175.958 430.239C171.27 425.543 168.636 419.174 168.636 412.533C168.636 405.891 171.27 399.522 175.958 394.826C180.647 390.13 187.005 387.492 193.635 387.492C200.265 387.492 206.624 390.13 211.313 394.826C216.001 399.522 218.635 405.891 218.635 412.533C218.635 419.174 216.001 425.543 211.313 430.239Z" fill="url(#paint0_linear_1_611)" stroke="#FF00CC" stroke-width="1.4" stroke-miterlimit="10"/>
<path d="M84.916 364.43V437.492L0 313.963L84.916 364.43Z" stroke="#FF00CC" stroke-width="1.4" stroke-miterlimit="10"/>
<path d="M84.917 364.43V437.492L169.833 313.963L84.917 364.43Z" stroke="#FF00CC" stroke-width="1.4" stroke-miterlimit="10"/>
<path d="M3.95001 305.069L84.916 268.998V352.01L3.95001 305.069Z" stroke="#FF00CC" stroke-width="1.4" stroke-miterlimit="10"/>
<path d="M165.883 305.069L84.916 268.998V351.516L165.883 305.069Z" stroke="#FF00CC" stroke-width="1.4" stroke-miterlimit="10"/>
<path d="M3.94897 305.068L84.916 172.645V268.998L3.94897 305.068Z" stroke="#FF00CC" stroke-width="1.4" stroke-miterlimit="10"/>
<path d="M165.883 305.068L84.917 172.645V268.998L165.883 305.068Z" stroke="#FF00CC" stroke-width="1.4" stroke-miterlimit="10"/>
</g>
<defs>
<linearGradient id="paint0_linear_1_611" x1="70.972" y1="365.387" x2="382.064" y2="248.332" gradientUnits="userSpaceOnUse">
<stop stop-color="#FF00CC"/>
<stop offset="1" stop-color="#333399"/>
</linearGradient>
<clipPath id="clip0_1_611">
<rect width="317" height="438" fill="white" transform="translate(0 0.287109)"/>
</clipPath>
</defs>
</svg>
